<svg width="88" height="16" viewBox="0 0 88 16" fill="none" xmlns="http://www.w3.org/2000/svg">
<path d="M17.5666 16C13.9833 16 11.3895 13.5159 11.3895 9.93656V0.480801H13.7427V9.96327C13.7427 12.2871 15.3204 13.8898 17.5666 13.8898C19.8396 13.8898 21.3906 12.2871 21.3906 9.96327V0.480801H23.7438V9.98998C23.717 13.5159 21.1767 16 17.5666 16Z" fill="#A28D69"/>
<path d="M33.4775 0C37.1143 0 39.7081 2.45743 39.7081 6.01002V15.5192H37.3549V5.9833C37.3549 3.68614 35.7505 2.08347 33.4775 2.08347C31.2045 2.08347 29.6 3.68614 29.6 5.9833V15.5192H27.2736V5.95659C27.2736 2.43072 29.8407 0 33.4775 0Z" fill="#A28D69"/>
<path d="M50.1104 0C53.7471 0 56.341 2.45743 56.341 6.01002V15.5192H53.9878V5.9833C53.9878 3.68614 52.3833 2.08347 50.1104 2.08347C47.8374 2.08347 46.2329 3.68614 46.2329 5.9833V15.5192H43.8797V5.95659C43.9065 2.43072 46.4736 0 50.1104 0Z" fill="#A28D69"/>
<path d="M87.2001 2.03005V0H85.3817C81.7449 0 79.151 2.45743 79.151 6.01002V15.5192H81.5042V5.9833C81.5042 3.68614 83.1087 2.08347 85.3817 2.08347L87.2001 2.03005Z" fill="#A28D69"/>
<path d="M8.84907 13.9699V16H7.03069C3.39392 16 0.800049 13.5159 0.800049 9.96327V0.480801H3.15325V10.0167C3.15325 12.3139 4.75771 13.9165 7.03069 13.9165L8.84907 13.9699Z" fill="#A28D69"/>
<path d="M73.1076 2.21703C71.7438 0.828047 69.8184 0 67.4652 0C67.4385 0 67.4118 0 67.385 0C67.3583 0 67.3315 0 67.278 0C64.9516 0 62.9728 0.854758 61.5822 2.27045C60.1917 3.68614 59.3895 5.68948 59.3895 7.98664C59.3895 10.3105 60.1917 12.3406 61.5822 13.783C62.946 15.172 64.8714 16 67.2246 16C67.2513 16 67.278 16 67.3048 16C67.3315 16 67.3583 16 67.4118 16C70.0324 16 72.2251 14.5042 73.0541 13.2487H73.1343C73.1343 13.2487 73.1076 13.6761 73.1076 14.2638C73.1076 14.8514 73.1076 15.5192 73.1076 15.5192H75.3003V8.01336C75.3003 5.68948 74.4981 3.65943 73.1076 2.21703ZM61.6357 8.01336C61.6357 5.2621 63.2134 3.07179 65.6201 2.35058C66.1549 2.16361 66.7432 2.08347 67.3583 2.08347C70.6741 2.08347 73.1076 4.35392 73.1076 7.98664C73.1076 11.1653 71.4496 12.9549 69.0429 13.6494C68.5081 13.8364 67.9198 13.9165 67.278 13.9165C63.9889 13.9165 61.6357 11.4057 61.6357 8.01336Z" fill="#A28D69"/>
</svg>
